<?xml version="1.0" encoding="UTF-8"?><svg id="Layer_2" xmlns="http://www.w3.org/2000/svg" viewBox="0 0 745.0026 201.4724"><g id="Components"><g id="_96d8ed84-6ed7-462e-bbe5-7864c943cb07_19"><path d="M275.5512,92.9743c.3852,0,.8983-.5801.8983-1.0157v-6.2308c0-.4333-.5132-1.0134-.8983-1.0134h-28.8617c-.3852,0-.768.4333-.768.869v41.7283c0,.4357.3828.869.768.869h7.1831c.3863,0,.7715-.4333.7715-.869v-15.2129h18.7275c.384,0,.8972-.5789.8972-1.0146v-6.232c0-.4333-.5132-1.0122-.8972-1.0122h-18.7275v-10.8657h20.907Z" style="fill:#645d3c;"/><path d="M311.9801,127.2386c.384.869.5778.9418,1.3469.9418h7.6317c.3863,0,.5131-.2901.5131-.5061,0-.2196-.1268-.5801-.2548-.869l-18.0876-42.0912h-6.6711l-18.0852,42.0912c-.1292.2889-.2572.6494-.2572.869,0,.2161.128.5061.5131.5061h7.6329c.768,0,.9618-.0728,1.3458-.9418l2.7584-6.5924h18.7275l2.8863,6.5924ZM293.444,112.9663l3.4642-8.0403c1.3457-3.1142,2.6938-7.7515,2.6938-7.7515h.384s1.3481,4.6373,2.695,7.7515l3.4629,8.0403h-12.6999Z" style="fill:#645d3c;"/><path d="M374.3846,128.1807c.384,0,.7692-.4333.7692-.869v-41.7283c0-.4357-.3852-.869-.7692-.869h-5.6448c-.4497,0-.896.2172-1.2189.7257l-14.9452,23.6161h-.1268l-14.9429-23.6161c-.3217-.5084-.7715-.7257-1.2189-.7257h-5.6448c-.3852,0-.7692.4333-.7692.869v41.7283c0,.4357.384.869.7692.869h7.1831c.3852,0,.7703-.4333.7703-.869v-26.5871h.1926s.768,2.1724,2.3087,4.6373l11.4153,18.0359,11.3542-18.0359c1.6017-2.4648,2.372-4.6373,2.372-4.6373h.1926v26.5871c0,.4357.3852.869.768.869h7.1855Z" style="fill:#645d3c;"/><path d="M388.2321,128.1807h7.1831c.3852,0,.7703-.4333.7703-.869v-41.7283c0-.4357-.3852-.869-.7703-.869h-7.1831c-.3852,0-.7692.4333-.7692.869v41.7283c0,.4357.384.869.7692.869" style="fill:#645d3c;"/><path d="M437.1059,127.1674v-6.2308c0-.4357-.5132-1.0157-.8995-1.0157h-18.9836v-34.3374c0-.4357-.3852-.869-.7703-.869h-7.1831c-.3863,0-.7691.4333-.7691.869v41.7283c0,.4357.3828.869.7691.869h26.937c.3863,0,.8995-.5801.8995-1.0134" style="fill:#645d3c;"/><path d="M473.2727,85.1481c0-.2172-.128-.4333-.384-.4333h-8.1448c-.7715,0-1.0909.1456-1.5407.869l-6.6054,10.5052c-1.476,2.318-3.2081,5.8656-3.2081,5.8656h-.2548s-1.7955-3.6932-3.2059-5.8656l-6.6077-10.5052c-.4497-.7234-.7692-.869-1.5383-.869h-8.1449c-.2583,0-.3863.2161-.3863.4333,0,.1456.0646.3628.3217.7985l15.328,24.8479v16.5164c0,.4368.384.8701.7692.8701h7.1831c.3852,0,.7715-.4333.7715-.8701v-16.5164l15.328-24.8479c.2548-.4357.3194-.6529.3194-.7985" style="fill:#645d3c;"/><path d="M261.8981,148.3232c5.7728,0,9.8112,3.8399,10.4547,8.8389.128.8678.4474,1.159,1.0886,1.159h6.6077c.7046,0,1.024-.4357,1.024-.9418,0-8.6228-6.9905-17.3161-19.1749-17.3161-11.609,0-20.718,9.1289-20.718,22.4583,0,13.4033,9.109,22.4594,20.718,22.4594,11.4153,0,19.1749-7.1737,19.1749-16.5199,0-.7234-.5765-1.0862-1.0886-1.0862h-6.4139c-.7703,0-1.0897.2901-1.2177,1.233-.7081,4.8522-4.6185,8.1132-10.4547,8.1132-6.8637,0-11.9954-5.7951-11.9954-14.1995,0-8.476,5.3876-14.1983,11.9954-14.1983" style="fill:#645d3c;"/><path d="M331.4538,140.789h-7.1831c-.3852,0-.7703.4333-.7703.869v18.0394h-22.1259v-18.0394c0-.4357-.3852-.869-.7715-.869h-7.182c-.3863,0-.7692.4333-.7692.869v41.7283c0,.4357.3829.869.7692.869h7.182c.3863,0,.7715-.4333.7715-.869v-15.4313h22.1259v15.4313c0,.4357.3852.869.7703.869h7.1831c.3852,0,.7692-.4333.7692-.869v-41.7283c0-.4357-.384-.869-.7692-.869" style="fill:#645d3c;"/><path d="M353.2788,140.789h-7.1831c-.3852,0-.768.4333-.768.869v41.7283c0,.4357.3828.869.768.869h7.1831c.3852,0,.7715-.4333.7715-.869v-41.7283c0-.4357-.3863-.869-.7715-.869" style="fill:#645d3c;"/><path d="M395.0953,172.0841c-.8983-1.5207-2.0539-2.897-2.0539-2.897v-.1468c5.1316-2.0256,8.6592-6.4456,8.6592-13.0369,0-9.4918-6.6712-15.2141-16.0349-15.2141h-17.8292c-.3863,0-.7692.4333-.7692.869v41.7271c0,.4357.3829.8701.7692.8701h7.1819c.3864,0,.7716-.4345.7716-.8701v-12.7492h8.274l7.8232,12.8937c.2583.4357.7057.7257,1.0275.7257h8.5289c.3852,0,.5131-.2172.5131-.5073,0-.1456-.0646-.4357-.384-.9418l-6.4774-10.7224ZM385.0903,162.8119h-9.3003v-13.7627h9.3003c4.8099,0,7.8877,2.6786,7.8877,6.9541,0,4.2732-3.0778,6.8085-7.8877,6.8085" style="fill:#645d3c;"/><path d="M431.3309,140.0632c-11.5456,0-21.2311,9.0561-21.2311,22.4594,0,13.6194,9.6856,22.4583,21.2311,22.4583s21.2288-8.8389,21.2288-22.4583c0-13.4033-9.6855-22.4594-21.2288-22.4594M431.3309,176.7209c-6.7991,0-12.5085-5.4323-12.5085-14.1983s5.7094-14.1995,12.5085-14.1995,12.5062,5.4323,12.5062,14.1995-5.7094,14.1983-12.5062,14.1983" style="fill:#645d3c;"/><path d="M480.0696,140.7887h-16.4189c-.3852,0-.7691.4333-.7691.8701v41.7271c0,.4357.384.869.7691.869h7.1831c.3852,0,.7716-.4333.7716-.869v-10.2879h8.4642c9.042,0,15.9704-5.9396,15.9704-16.0091,0-9.9979-6.6699-16.3003-15.9704-16.3003M479.365,165.2762h-7.7597v-16.2275h7.7597c4.7453,0,7.9511,3.0414,7.9511,8.0403,0,4.8534-2.884,8.1872-7.9511,8.1872" style="fill:#645d3c;"/><path d="M533.4929,172.0841c-.8983-1.5207-2.0539-2.897-2.0539-2.897v-.1468c5.1316-2.0256,8.6592-6.4456,8.6592-13.0369,0-9.4918-6.6712-15.2141-16.0349-15.2141h-17.8292c-.3852,0-.7692.4333-.7692.869v41.7271c0,.4357.384.8701.7692.8701h7.1819c.3864,0,.7716-.4345.7716-.8701v-12.7492h8.274l7.8243,12.8937c.2572.4357.7046.7257,1.0263.7257h8.5289c.3852,0,.5132-.2172.5132-.5073,0-.1456-.0635-.4357-.3829-.9418l-6.4785-10.7224ZM523.4879,162.8119h-9.3003v-13.7627h9.3003c4.8099,0,7.8877,2.6786,7.8877,6.9541,0,4.2732-3.0778,6.8085-7.8877,6.8085" style="fill:#645d3c;"/><path d="M571.5881,140.7886h-6.6712l-18.0852,42.0912c-.1303.2889-.2572.6494-.2572.869,0,.2161.1269.5061.5132.5061h7.6317c.769,0,.9629-.0728,1.3469-.9418l2.7584-6.5924h18.7275l2.8864,6.5924c.3827.869.5777.9418,1.3469.9418h7.6317c.3852,0,.5132-.2901.5132-.5061,0-.2196-.128-.5801-.2549-.869l-18.0875-42.0912ZM561.9025,169.0408l3.4629-8.0403c1.3469-3.1142,2.695-7.7515,2.695-7.7515h.3827s1.3493,4.6373,2.695,7.7515l3.4641,8.0403h-12.6999Z" style="fill:#645d3c;"/><path d="M615.1341,148.3232c5.7728,0,9.8112,3.8399,10.4546,8.8389.128.8678.4475,1.159,1.0886,1.159h6.6078c.7045,0,1.0239-.4357,1.0239-.9418,0-8.6228-6.9905-17.3161-19.1749-17.3161-11.609,0-20.7179,9.1289-20.7179,22.4583,0,13.4033,9.1089,22.4594,20.7179,22.4594,11.4152,0,19.1749-7.1737,19.1749-16.5199,0-.7234-.5765-1.0862-1.0886-1.0862h-6.4127c-.7715,0-1.091.2901-1.219,1.233-.7068,4.8522-4.6185,8.1132-10.4546,8.1132-6.8637,0-11.9953-5.7951-11.9953-14.1995,0-8.476,5.3876-14.1983,11.9953-14.1983" style="fill:#645d3c;"/><path d="M676.767,140.789h-36.4287c-.3863,0-.8995.5801-.8995,1.0134v6.2308c0,.4357.5132,1.0157.8995,1.0157h13.8519v34.3374c0,.4357.3852.869.7703.869h7.1831c.3829,0,.7692-.4333.7692-.869v-34.3374h13.8542c.3829,0,.8972-.5801.8972-1.0157v-6.2308c0-.4333-.5143-1.0134-.8972-1.0134" style="fill:#645d3c;"/><path d="M694.0165,140.789h-7.1831c-.3852,0-.768.4333-.768.869v41.7283c0,.4357.3829.869.768.869h7.1831c.3852,0,.7715-.4333.7715-.869v-41.7283c0-.4357-.3863-.869-.7715-.869" style="fill:#645d3c;"/><path d="M725.8277,148.3232c5.7728,0,9.8112,3.8399,10.4546,8.8389.128.8678.4475,1.159,1.0886,1.159h6.6078c.7045,0,1.0239-.4357,1.0239-.9418,0-8.6228-6.9905-17.3161-19.1749-17.3161-11.609,0-20.7179,9.1289-20.7179,22.4583,0,13.4033,9.1089,22.4594,20.7179,22.4594,11.4152,0,19.1749-7.1737,19.1749-16.5199,0-.7234-.5765-1.0862-1.0886-1.0862h-6.4127c-.7715,0-1.091.2901-1.219,1.233-.7068,4.8522-4.6185,8.1132-10.4546,8.1132-6.8637,0-11.9953-5.7951-11.9953-14.1995,0-8.476,5.3876-14.1983,11.9953-14.1983" style="fill:#645d3c;"/><path d="M246.8097,70.1546h7.0505c.6223,0,1.1907-.6142,1.1907-1.287v-12.0776h7.4414l7.5519,12.4404c.3217.5437.8901.9242,1.3809.9242h8.3739c.5695,0,.9383-.3664.9383-.9324,0-.2994-.1504-.6893-.4427-1.1484l-6.3552-10.5193c-.6271-1.0639-1.3716-2.0456-1.7708-2.5482,5.2925-2.2828,8.3163-6.9976,8.3163-13.0123,0-9.1888-6.4997-15.3632-16.1735-15.3632h-17.5016c-.6223,0-1.1907.6142-1.1907,1.287v40.9498c0,.6729.5684,1.287,1.1907,1.287M255.0509,48.2412v-12.6377h8.6933c4.5081,0,7.3088,2.4496,7.3088,6.3905,0,3.9115-2.7314,6.2472-7.3088,6.2472h-8.6933Z" style="fill:#645d3c;"/><path d="M290.7356,70.1552h29.9666c.6153,0,1.3164-.7621,1.3164-1.4303v-6.1145c0-.667-.7011-1.4303-1.3164-1.4303h-21.7255v-8.7978h19.458c.6165,0,1.3176-.7621,1.3176-1.4315v-6.1133c0-.667-.7011-1.4291-1.3176-1.4291h-19.458v-7.8043h21.3485c.6142,0,1.3152-.7621,1.3152-1.4303v-6.1133c0-.667-.701-1.4303-1.3152-1.4303h-29.5897c-.6224,0-1.1907.6153-1.1907,1.2882v40.9486c0,.674.5683,1.2882,1.1907,1.2882" style="fill:#645d3c;"/><path d="M345.0887,70.1552h6.4938l17.5497-41.4207c.256-.5848.4134-.9582.4134-1.2436,0-.4274-.2901-.8608-.9383-.8608h-7.5542c-.9124,0-1.2682.1632-1.7227,1.1884l-8.7496,20.5442c-.9688,2.2406-1.8448,4.999-2.2452,6.3177-.4004-1.3187-1.2753-4.0771-2.2452-6.3177l-8.752-20.55c-.451-1.0193-.808-1.1825-1.7204-1.1825h-7.5542c-.6482,0-.9383.4333-.9383.8608,0,.2854.1573.6588.411,1.2377l17.5521,41.4265Z" style="fill:#645d3c;"/><path d="M386.3511,68.8673V27.9187c0-.674-.5684-1.2882-1.1907-1.2882h-7.0505c-.6223,0-1.1907.6141-1.1907,1.2882v40.9486c0,.6729.5684,1.2882,1.1907,1.2882h7.0505c.6223,0,1.1907-.6153,1.1907-1.2882" style="fill:#645d3c;"/><path d="M411.5779,69.889l.1127.2666h6.4938l17.5486-41.4218c.2572-.5836.4145-.9582.4145-1.2424,0-.4286-.29-.8608-.9382-.8608h-7.5554c-.9112,0-1.2683.1632-1.7215,1.1884l-8.7508,20.5442c-.9676,2.2393-1.8436,4.9989-2.244,6.3177-.4004-1.3187-1.2753-4.0783-2.2453-6.3177l-8.7531-20.55c-.4509-1.0193-.8067-1.1825-1.7191-1.1825h-7.5554c-.647,0-.9383.4322-.9383.8608,0,.2865.1574.6611.4134,1.2354l17.4381,41.1623Z" style="fill:#645d3c;"/><path d="M434.6471,69.2221c0,.4638.3229.9335.9382.9335h7.492c.9125,0,1.2683-.1644,1.7227-1.1919l2.5963-6.2026h17.8092l2.7197,6.2108c.4509,1.0193.8079,1.1837,1.7191,1.1837h7.492c.6165,0,.9394-.4697.9394-.9335,0-.3124-.1585-.7316-.2888-1.024l-17.8668-41.5675h-7.1185l-17.8645,41.5616c-.1315.2983-.29.7175-.29,1.0299M450.7888,54.3556l3.1377-7.2829c.9946-2.2993,1.9963-5.464,2.4354-6.8978.4368,1.4338,1.4385,4.5985,2.4331,6.8978l3.1377,7.2829h-11.144Z" style="fill:#645d3c;"/><path d="M513.08,61.1804h-18.1991V27.9187c0-.674-.5684-1.2882-1.1908-1.2882h-7.0504c-.6224,0-1.1908.6142-1.1908,1.2882v40.9486c0,.6729.5684,1.2882,1.1908,1.2882h26.4403c.6153,0,1.3163-.7633,1.3163-1.4303v-6.1145c0-.6682-.701-1.4303-1.3163-1.4303" style="fill:#645d3c;"/><path d="M182.1733,49.5711c1.3051-5.3301,1.6026-11.1623.66-17.1397-1.5376-9.7508-6.0909-18.4541-12.8211-24.506-6.9027-6.2088-15.2589-8.9096-23.5334-7.6042-8.2723,1.3045-15.3931,6.4461-20.0507,14.4776-2.8416,4.8996-4.5521,10.5246-5.058,16.4379-2.1651-.2761-5.5436-.0079-11.9058.6302-6.4394-9.8424-12.1507-15.8778-20.6527-18.3642-14.2234-4.1571-19.0638-2.3615-23.3341-.7763-.415.1538-.8245.3061-1.2413.4491-.5881.2014-2.6189.0937-4.252.009-7.0056-.3713-18.7275-.9856-28.3633,9.8142-6.2104,6.9602-7.5866,13.6811-8.6925,19.0817-1.1162,5.4511-1.8537,9.0526-6.6689,11.6816C1.5768,61.7777.1057,78.263.0044,83.1245c-.071,3.4063.7322,6.4419,1.5092,9.3771,1.1627,4.3938,2.3652,8.9376.9923,15.6364-1.5388,7.512-.0994,12.6941,3.1516,16.8058,2.099,20.1608,12.0387,39.2033,28.1511,53.7719,13.4833,12.1909,30.6265,20.4392,45.0717,21.7718.263.1193.5407.2213.8527.2814.1952.0382.3853.0601.5716.0684,2.2931.1025,3.9007-1.9453,4.9773-3.979,6.4388,1.3616,16.5354,3.2479,24.5242,3.6051,3.7744.1688,7.0791-.0041,9.3015-.7352,3.2022-1.0543,5.9454-4.8082,7.663-8.834.7655.0439,1.5396.0861,2.3463.1222,1.0094.0451,2.0615.0822,3.1339.1154.8519,4.1319,2.6153,8.5595,4.7821,9.8326.5299.3112,1.0971.4795,1.6612.5047.346.0155.6909-.0231,1.0255-.1149l.0022.0099c20.0348-4.3962,38.9691-15.0642,53.3156-30.0398,14.3662-14.997,22.6025-32.6748,23.1912-49.7765.7677-22.3153-2.868-46.4688-34.0553-71.9768ZM131.5651,17.7772c3.7427-6.4535,9.3679-10.5697,15.8392-11.5904,1.34-.2116,2.6855-.2854,4.0273-.2254,5.1384.2297,10.2113,2.423,14.6098,6.3792,5.7202,5.1441,9.6002,12.6072,10.9263,21.0162,2.701,17.1264-6.1666,32.8051-19.7676,34.9501-6.4735,1.0206-13.0904-1.1648-18.6371-6.1538-5.7202-5.1441-9.6001-12.6081-10.9262-21.0171-1.3262-8.4081.0691-16.7043,3.9284-23.3588ZM19.1052,58.9741c7.2341-3.9505,8.4576-9.9246,9.6407-15.703,1.0625-5.1882,2.1609-10.5526,7.3063-16.32,7.7373-8.6726,17.2957-8.1649,23.6201-7.8375,2.6877.1452,4.8119.2526,6.4882-.3207.4639-.1588.9211-.3276,1.3833-.4999,3.5728-1.3244,7.2665-2.6971,19.6016.9094,9.5509,2.7926,15.4232,12.1443,24.9802,28.4341,10.1735,17.34,1.6739,29.8024-2.4106,35.7914-.4293.629-.7954,1.1709-1.1047,1.6641-11.9538,2.1759-21.4424,13.8319-22.0873,28.2561-.1068,2.3897.0283,4.8116.3823,7.2077l-.4943-.2999c-3.3198-2.0157-7.0831-4.2995-9.0551-7.482-2.2955-3.705-2.4009-8.8973-.3138-15.431.5575-1.7432,1.1996-3.4523,1.8802-5.2615.9171-2.4391,1.8557-4.96,2.5675-7.5561.781-.5222,1.5492-1.0861,2.2982-1.703,5.7614-4.746,9.8228-11.7469,11.4359-19.7137.5331-2.6343.7743-5.2748.7349-7.891,1.4477.4846,2.9361.7943,4.4552.862.6791.0304,1.3666.0138,2.0564-.0554,1.6317-.1628,2.8223-1.617,2.6595-3.2486-.1628-1.6317-1.6133-2.8253-3.2491-2.6591-8.4749.8329-17.9195-11.637-20.8389-16.5175l-1.0475-1.757-2.0148.3529c-.4185.0733-10.2701,1.9377-12.0936,14.2994-.5992,4.065-4.6384,5.5856-11.2197,7.6069-4.3276,1.3291-8.8027,2.7034-11.4385,5.7888-14.7032,17.2118-2.3092,29.9467,7.6498,40.1802,8.2839,8.512,16.108,16.5515,11.9055,26.7681-1.817,4.4169-4.992,7.4317-9.437,8.9601-8.1301,2.7987-20.1223.3997-32.0743-6.4126-11.2719-6.4255-14.9225-10.4216-12.9486-20.0556,1.6523-8.0642.2061-13.5271-1.0693-18.3474-.7334-2.7708-1.3663-5.1638-1.313-7.7342.0844-4.055,1.2834-17.7886,13.1642-24.2747ZM134.3308,130.2869c4.2058.6342,13.5922,3.3629,18.6533,15.0538-7.6805,7.5957-16.6893,12.0512-20.6771,13.7832-.1377.0503-.2804.1128-.4273.1885-1.49-.2648-2.8652-.4835-4.0997-.648l-2.3434-.3173c-11.0835-1.5109-19.8362-2.7042-23.7403,2.5267-1.4531,1.9467-1.942,4.7112-1.4563,8.0536-2.9217-.0781-5.9483-.1101-8.6845-.118.0141-2.247-.2107-4.9713-1.1558-6.8835-.2276-.7913-.7784-1.4725-1.5654-1.8502-.3047-.1921-.6417-.3364-1.0148-.4246-9.3906-3.6976-16.6134-7.0626-21.1431-13.0196.8355-2.1165,6.6129-15.0927,22.8212-16.7122.8785,2.1139,1.9333,4.1354,3.1625,6.0071,4.6574,7.0925,11.0357,11.1694,17.9601,11.479,10.1648.4545,18.9352-7.2481,23.7105-17.1186ZM55.1332,95.9286c-10.3358-10.6196-16.6361-18.0625-10.129-28.4836,2.2275,10.7198,9.4156,18.8836,18.9936,20.8231,1.116.2258,2.2368.3634,3.358.4136,2.2771.1018,4.5528-.1618,6.7813-.7659-.2516.6844-.5093,1.3741-.7732,2.0758-.6761,1.7987-1.3754,3.6579-1.9777,5.5447-2.64,8.2638-2.3297,15.1155.922,20.3644,2.6368,4.2556,7.031,7.005,10.6651,9.2134-10.6799,2.9665-16.7374,10.3422-19.6887,15.2165-.3241-.8982-.6242-1.826-.8723-2.8211-.0128-.0513-.0372-.096-.0524-.146,2.5366-2.1805,4.5497-4.9471,5.9152-8.2667,5.6854-13.8224-4.3172-24.0999-13.1419-33.1683ZM89.404,61.9306c-1.3437,6.6348-4.6791,12.4269-9.3914,16.308-4.5329,3.7346-9.7993,5.2289-14.8363,4.2098-8.3688-1.695-14.3268-9.999-14.9046-20.4737,1.7373-.8444,3.9593-1.5284,6.1379-2.1972,6.3092-1.9379,14.1607-4.349,15.351-12.4168.7849-5.3221,3.6304-7.6658,5.5141-8.6523,2.1532,3.1732,6.7214,9.2501,12.5276,13.3119l-.0076.0009c.4148,3.245.2832,6.579-.3908,9.9093ZM87.6115,124.1552c-.1461.0198-.2849.0476-.4296.069l.3161-.5212c.035.1514.0767.3011.1135.4521ZM110.8855,141.4735c-9.2697-.4145-19.1211-12.4167-18.4306-27.86.5873-13.1368,9.9824-23.4257,20.9432-22.9357,10.9604.49,19.3997,11.5764,18.8124,24.7131-.6201,13.8693-10.9836,26.5449-21.325,26.0825ZM12.5674,131.029c1.7853,1.2013,3.7247,2.3533,5.7639,3.5158,8.9969,5.1281,17.929,7.96,25.8008,8.312,4.0391.1806,7.7997-.2916,11.1454-1.4422.6387-.2197,1.2504-.4768,1.854-.7447,4.0293,13.2447,14.5445,18.8354,24.8865,23.066-.4592.9021-.8105,1.7726-1.0612,2.3989-1.3528,3.3821-2.6184,7.9415-3.5634,12.8385s-1.4669,9.6004-1.469,13.2429c-.0003.5142.0017,1.1842.0417,1.9179-24.359-4.0731-56.3629-27.9675-63.3988-63.1049ZM122.5247,184.4673c-.6773,3.3991-2.836,8.818-5.2742,9.6207-5.4795,1.8025-23.9802-1.4123-35.3171-4.0506.1401-2.5866.5182-5.9366,1.2904-9.9393.3734-1.9343.7758-3.691,1.1857-5.2712,6.6006.0533,24.3148.245,27.812.7457,2.1521.3083,3.033,2.0048,2.9025,3.6782-.0957,1.2282.8386,2.3108,2.0438,2.5664,1.8985.4025,3.154.5219,4.085.7247.8794.1916,1.4478,1.0427,1.2719,1.9254ZM128.4376,185.3534c.2027-1.187.283-2.2929.2099-3.232-.2231-2.8522-1.5861-3.8861-7.6136-5.4785-.2514-.0664-.4152-.303-.408-.5629.0412-1.4988-.5666-2.5707-1.1152-3.2268-1.8089-2.1643-5.7172-3.2329-13.4901-3.6903-.0126-.0007-.0259-.0014-.0386-.0021-.5708-2.6387-.2753-4.2767.2113-4.929,1.9255-2.5796,10.3444-1.4325,18.4856-.3237l2.3575.3197c1.6576.2208,3.5845.5426,5.7484.9591,1.0253,1.9519,2.7542,7.0678,3.9542,14.8937.3087,2.0126.5198,3.8636.6594,5.5488-3.2211-.0436-6.2123-.1375-8.961-.276ZM143.375,194.3214c.5702-5.3934-.337-12.3409-.7664-15.141-.7754-5.0579-1.8822-9.7823-3.1166-13.3024-.2677-.7638-.6615-1.8759-1.21-2.989,19.9542-9.9009,38.9207-29.8682,31.2162-56.5139-.4556-1.5751-2.1015-2.4819-3.6769-2.0281-1.5751.4556-2.4828,2.1019-2.0272,3.677,3.3897,11.7239,1.1908,22.6582-6.5145,32.512-5.8571-11.2593-15.2472-14.7794-20.7357-15.8787.9096-2.9603,1.4647-6.005,1.5987-9.001.6957-15.5597-9.1464-28.8258-22.3026-30.6988,4.532-6.9243,12.4034-21.583,1.4074-40.3262-1.4916-2.5423-2.8951-4.91-4.2511-7.1424,3.5904-.3352,7.1604-.5975,7.8548-.3264.0404.0259.1379.1115.2905.2541l.1373-.147c.0816,1.5905.2395,3.1899.4922,4.792,1.5376,9.7508,6.0909,18.4541,12.821,24.5069,5.4424,4.895,11.7878,7.6086,18.284,7.8991,1.7432.0779,3.4988-.0186,5.2494-.2949,9.9433-1.5682,17.8775-8.7443,22.0479-18.5504,28.9744,24.4948,30.774,46.7271,30.1204,65.7211-1.0696,31.0812-30.6373,62.8947-66.9189,72.9781Z" style="fill:#645d3c;"/></g></g></svg>